<svg width="70" height="69" viewBox="0 0 70 69" fill="none" xmlns="http://www.w3.org/2000/svg">
<g filter="url(#filter0_d_2001_413)">
<path d="M26.207 10.2155C26.0171 10.3397 25.764 10.5882 25.6375 10.7745C25.4265 11.1264 25.4265 11.3335 25.4265 18.3518V25.5772H27.1351H28.8437V19.4491V13.3417H40.0445C46.6046 13.3417 51.2031 13.3831 51.1398 13.4452C51.0765 13.5073 49.3468 14.4804 47.3007 15.619C45.2335 16.7577 43.1664 17.9171 42.7023 18.1862C41.2679 19.0143 41.4156 17.3581 41.4156 32.9889V46.4253H35.1085H28.8437V41.7257V37.0261H27.1351H25.4265V42.8436V48.6612L25.6796 49.0132C25.8062 49.2202 26.1015 49.4686 26.3125 49.5929C26.6921 49.8206 26.8609 49.8206 34.0539 49.862L41.3945 49.9034L41.4367 53.4436L41.4789 56.9839L41.7531 57.3565C42.1117 57.8534 42.871 58.1639 43.3984 58.0604C43.757 57.9983 45.0859 57.2737 55.0421 51.7253C57.0671 50.6073 58.7335 49.6757 58.7968 49.6757C59.0078 49.6757 59.6195 48.9097 59.7039 48.537C59.8515 47.8952 59.8304 11.7889 59.6828 11.2507C59.6195 11.0229 59.4507 10.6917 59.3242 10.5675C58.7546 9.96707 59.746 10.0085 42.5335 10.0085C26.8187 9.98778 26.5867 9.98778 26.207 10.2155Z" fill="url(#paint0_linear_2001_413)"/>
<path d="M19.7734 23.7967C17.4109 25.3909 10.1969 30.6287 10.1125 30.8358C9.92265 31.2498 9.96483 31.6018 10.3023 31.933C10.4711 32.0987 12.7703 33.7963 15.4492 35.6803C19.8156 38.7858 20.3219 39.1377 20.7226 39.1377C21.0601 39.1377 21.2289 39.0549 21.4187 38.8272C21.693 38.5166 21.693 38.4959 21.693 36.0944V33.6721L26.7344 33.6307L31.7758 33.5893L32.3031 33.2787C33.0203 32.8647 33.4 32.2643 33.4633 31.4776C33.5266 30.7116 33.3578 30.1733 32.8937 29.6764C32.1766 28.8897 32.2609 28.8897 26.6922 28.8897H21.6719V26.4467C21.6508 23.8795 21.6508 23.776 21.1445 23.5276C20.7437 23.2998 20.4062 23.3826 19.7734 23.7967Z" fill="url(#paint1_linear_2001_413)"/>
</g>
<defs>
<filter id="filter0_d_2001_413" x="0" y="0" width="69.8047" height="68.0803" filterUnits="userSpaceOnUse" color-interpolation-filters="sRGB">
<feFlood flood-opacity="0" result="BackgroundImageFix"/>
<feColorMatrix in="SourceAlpha" type="matrix" values="0 0 0 0 0 0 0 0 0 0 0 0 0 0 0 0 0 0 127 0" result="hardAlpha"/>
<feOffset/>
<feGaussianBlur stdDeviation="5"/>
<feComposite in2="hardAlpha" operator="out"/>
<feColorMatrix type="matrix" values="0 0 0 0 0 0 0 0 0 0 0 0 0 0 0 0 0 0 0.65 0"/>
<feBlend mode="normal" in2="BackgroundImageFix" result="effect1_dropShadow_2001_413"/>
<feBlend mode="normal" in="SourceGraphic" in2="effect1_dropShadow_2001_413" result="shape"/>
</filter>
<linearGradient id="paint0_linear_2001_413" x1="42.6156" y1="10" x2="42.6156" y2="58.0803" gradientUnits="userSpaceOnUse">
<stop stop-color="#F197F4"/>
<stop offset="1" stop-color="#2B3A63"/>
</linearGradient>
<linearGradient id="paint1_linear_2001_413" x1="21.738" y1="23.4033" x2="21.738" y2="39.1377" gradientUnits="userSpaceOnUse">
<stop stop-color="#F197F4"/>
<stop offset="1" stop-color="#2B3A63"/>
</linearGradient>
</defs>
</svg>
